<svg width="40" height="39" viewBox="0 0 40 39" fill="none" xmlns="http://www.w3.org/2000/svg">
<g clip-path="url(#clip0_232_119)">
<path d="M33.3334 28.4375C33.9754 28.4378 34.5927 28.6789 35.0573 29.1109C35.522 29.5429 35.7984 30.1326 35.8292 30.7579C35.8601 31.3831 35.643 31.996 35.2231 32.4694C34.8031 32.9429 34.2124 33.2407 33.5734 33.3011L33.3334 33.3125H6.66669C6.02466 33.3122 5.40736 33.0711 4.94271 32.6391C4.47806 32.2071 4.20167 31.6174 4.17081 30.9921C4.13996 30.3669 4.35701 29.754 4.77698 29.2805C5.19695 28.8071 5.78765 28.5093 6.42669 28.4489L6.66669 28.4375H33.3334ZM33.3334 17.0625C33.9964 17.0625 34.6323 17.3193 35.1011 17.7764C35.57 18.2335 35.8334 18.8535 35.8334 19.5C35.8334 20.1465 35.57 20.7665 35.1011 21.2236C34.6323 21.6807 33.9964 21.9375 33.3334 21.9375H6.66669C6.00365 21.9375 5.36776 21.6807 4.89892 21.2236C4.43008 20.7665 4.16669 20.1465 4.16669 19.5C4.16669 18.8535 4.43008 18.2335 4.89892 17.7764C5.36776 17.3193 6.00365 17.0625 6.66669 17.0625H33.3334ZM33.3334 5.6875C33.9964 5.6875 34.6323 5.94431 35.1011 6.40143C35.57 6.85855 35.8334 7.47853 35.8334 8.125C35.8334 8.77147 35.57 9.39145 35.1011 9.84857C34.6323 10.3057 33.9964 10.5625 33.3334 10.5625H6.66669C6.00365 10.5625 5.36776 10.3057 4.89892 9.84857C4.43008 9.39145 4.16669 8.77147 4.16669 8.125C4.16669 7.47853 4.43008 6.85855 4.89892 6.40143C5.36776 5.94431 6.00365 5.6875 6.66669 5.6875H33.3334Z" fill="black"/>
</g>
<defs>
<clipPath id="clip0_232_119">
<rect width="40" height="39" fill="white"/>
</clipPath>
</defs>
</svg>
